<svg xmlns="http://www.w3.org/2000/svg" viewBox="0 0 810 300">
  <g>
    <path fill="#24423d" d="M405,50 C405,50 350,100 405,150 C460,100 405,50 405,50"/>
    <path fill="#24423d" d="M350,100 C350,100 300,150 350,200 C400,150 350,100 350,100"/>
    <path fill="#24423d" d="M460,100 C460,100 410,150 460,200 C510,150 460,100 460,100"/>
    <path fill="#db1462" d="M391 216c0.2 0 0.3 0 0.4-0.1 0.1-0.1 0.2-0.3 0.2-0.5 0.1-6-0.3-11.9 0-17.8 0.2-4 0.5-7.9 0.7-11.9 0.1-1.1-0.4-1.7-1.5-1.7-3.8-0.2-7.7-0.4-11.5-0.6-5.3-0.3-2.3-7.9-0.7-10.3 4.1-6 10.2-11 17.7-11.5 6.2-0.4 11.5 1.7 16 6.3 3.9 4.1 6.3 8.6 7 13.6 0 0.2 0 0.4-0.1 0.6-0.1 0.2-0.2 0.4-0.4 0.5-1.2 0.7-2.6 1-4.1 1-4.7-0.1-8.9 0-12.5 0.4-0.2 0-0.4 0.1-0.5 0.1-0.2 0.1-0.3 0.2-0.4 0.3-0.1 0.1-0.2 0.3-0.3 0.5 0 0.2 0 0.4 0 0.5 0.7 8 1 16 1.8 24.2 1 9.4 1.6 17.9 1.8 25.6 0.5 20.5 0.9 42.4 1.3 65.8 0.1 9.5 0.3 18.8-0.6 28.7-0.1 0.8-0.2 1.5-0.4 2.3-0.4 1.6-0.9 1.6-1.4 0.1-1.5-4.3-2.8-8.8-4.1-13.6-2.3-8.5-4.3-15.8-6.2-21.9-0.9-3-2.7-6.3-5.3-9.9-6.5-9.1-14-18.4-17.7-28.4-3.1-8.1-6.4-16.8-6.5-25.2 0-0.2 0-0.3-0.1-0.5-0.1-0.2-0.2-0.3-0.3-0.4-0.1-0.1-0.3-0.2-0.4-0.3-0.2-0.1-0.3-0.1-0.5-0.1-7.1 0.1-14.3 0.3-21.1-1.1-0.2 0-0.3-0.1-0.4-0.2-0.1-0.1-0.2-0.3-0.2-0.4-0.2-2.7 0.3-5.2 1.4-7.4 6-12.8 21.3-21.6 35.4-15.6 4.8 2 9.3 4.7 12.4 8.6 0.3 0.3 0.6 0.5 1.1 0.6z"/>
  </g>
  <text x="405" y="250" text-anchor="middle" font-size="40" font-weight="bold" fill="#24423d">VIOMA</text>
  <text x="405" y="280" text-anchor="middle" font-size="20" fill="#24423d">AGRO</text>
</svg>