<svg xmlns="http://www.w3.org/2000/svg" xmlns:xlink="http://www.w3.org/1999/xlink" width="500" zoomAndPan="magnify" viewBox="0 0 375 374.999991" height="500" preserveAspectRatio="xMidYMid meet" version="1.0"><path fill="#db1462" d="M 185.5625 118.824219 C 185.679688 118.824219 185.742188 118.765625 185.75 118.648438 C 185.851562 116.550781 185.648438 114.503906 185.757812 112.332031 C 185.847656 110.5625 185.941406 108.863281 186.046875 107.234375 C 186.058594 107.089844 186.015625 106.960938 185.914062 106.855469 C 185.816406 106.746094 185.695312 106.6875 185.546875 106.683594 C 184.113281 106.632812 182.589844 106.542969 180.976562 106.410156 C 179.027344 106.25 180.371094 103.25 180.929688 102.449219 C 182.085938 100.796875 183.433594 99.613281 184.976562 98.894531 C 190.132812 96.496094 195.449219 100.601562 196.261719 105.789062 C 196.285156 105.957031 196.222656 106.082031 196.070312 106.164062 C 195.664062 106.375 195.238281 106.480469 194.792969 106.484375 C 193.175781 106.503906 191.511719 106.566406 189.792969 106.671875 C 189.652344 106.679688 189.53125 106.742188 189.4375 106.847656 C 189.34375 106.957031 189.300781 107.085938 189.3125 107.226562 C 189.582031 110.445312 189.707031 113.550781 190.039062 116.785156 C 190.355469 119.84375 190.546875 122.476562 190.609375 124.683594 C 190.875 134.417969 191.074219 144.394531 191.203125 154.613281 C 191.230469 156.949219 191.132812 159.53125 190.90625 162.351562 C 190.878906 162.671875 190.835938 162.878906 190.773438 162.972656 C 190.558594 163.289062 190.394531 163.261719 190.285156 162.890625 C 189.0625 158.800781 187.894531 154.703125 186.792969 150.597656 C 186.320312 148.839844 185.582031 147.265625 184.582031 145.878906 C 183.351562 144.171875 182.097656 142.40625 180.824219 140.574219 C 178.425781 137.128906 176.941406 133.359375 175.847656 129.464844 C 175.449219 128.039062 175.226562 126.605469 175.179688 125.164062 C 175.175781 125.046875 175.128906 124.945312 175.039062 124.863281 C 174.953125 124.78125 174.847656 124.742188 174.726562 124.75 C 172.015625 124.882812 169.382812 124.753906 166.832031 124.363281 C 166.71875 124.347656 166.625 124.292969 166.550781 124.207031 C 166.476562 124.121094 166.4375 124.023438 166.4375 123.90625 C 166.425781 123.113281 166.558594 122.371094 166.828125 121.683594 C 168.6875 116.945312 174.355469 113.332031 179.492188 115.011719 C 181.632812 115.710938 183.628906 116.910156 185.136719 118.632812 C 185.25 118.761719 185.390625 118.828125 185.5625 118.824219 Z M 185.386719 124.898438 C 183.199219 124.835938 180.933594 124.660156 178.710938 124.742188 C 178.640625 124.746094 178.585938 124.773438 178.542969 124.828125 C 178.503906 124.882812 178.488281 124.941406 178.5 125.007812 C 179.492188 130.121094 181.71875 134.519531 185.179688 138.203125 C 185.453125 138.496094 185.589844 138.441406 185.59375 138.039062 L 185.707031 125.230469 C 185.710938 125.140625 185.679688 125.0625 185.617188 125 C 185.554688 124.933594 185.476562 124.902344 185.386719 124.898438 Z M 185.386719 124.898438" fill-opacity="1" fill-rule="nonzero"/></svg>